<svg xmlns="http://www.w3.org/2000/svg" viewBox="0 0 32 32"><defs><style>.cls-1{fill:#50A672;}.cls-2{fill:#006BAD;}</style></defs><title>Question</title><g id="Question"><path class="cls-1" d="M12.8,31.68a1,1,0,1,1,.4-2A14,14,0,1,0,9,28.13a1,1,0,1,1-1,1.74,16,16,0,1,1,4.79,1.81Z"/><path class="cls-1" d="M16,28A12,12,0,1,1,28,16,12,12,0,0,1,16,28ZM16,6A10,10,0,1,0,26,16,10,10,0,0,0,16,6Z"/><path class="cls-2" d="M16,20a1,1,0,0,1-1-1,3.5,3.5,0,0,1,2.15-3.23,3,3,0,1,0-4-2,1,1,0,1,1-1.94.5,5,5,0,1,1,6.76,3.37A1.48,1.48,0,0,0,17,19,1,1,0,0,1,16,20Z"/><path class="cls-2" d="M16,24a1,1,0,1,1,1-1A1,1,0,0,1,16,24Z"/></g></svg>