<?xml version="1.0" encoding="utf-8"?>
<!-- Generator: Adobe Illustrator 23.0.6, SVG Export Plug-In . SVG Version: 6.00 Build 0)  -->
<svg version="1.1" xmlns="http://www.w3.org/2000/svg" xmlns:xlink="http://www.w3.org/1999/xlink" x="0px" y="0px"
	 viewBox="0 0 64 64" style="enable-background:new 0 0 64 64;" xml:space="preserve">
<style type="text/css">
	.st0{display:none;}
	.st1{display:inline;}
	.st2{fill:none;stroke:#010101;stroke-width:0.25;stroke-miterlimit:10;}
	.st3{fill:#FFF200;}
	.st4{fill:#FFFFFF;}
	.st5{fill:#00DD24;}
	.st6{fill:#777777;}
	.st7{fill:#00BDFF;}
	.st8{fill:#DB0000;}
	.st9{fill:none;}
	.st10{fill:#606060;}
	.st11{fill:none;stroke:#000000;stroke-width:2;stroke-linecap:round;stroke-linejoin:round;stroke-miterlimit:10;}
	.st12{fill:none;stroke:#000000;stroke-width:2;stroke-miterlimit:10;}
	.st13{opacity:0.3;}
	.st14{opacity:0.5;}
</style>
<g id="guide_4_" class="st0">
	<g id="guide_14_" class="st1">
		
			<rect x="0.13" y="-0.02" transform="matrix(6.123234e-17 -1 1 6.123234e-17 0.1455 64.1127)" class="st2" width="64" height="64"/>
		<circle class="st2" cx="32.13" cy="31.98" r="32"/>
		<circle class="st2" cx="32.13" cy="31.98" r="23"/>
		<line class="st2" x1="64.13" y1="63.98" x2="0.13" y2="-0.02"/>
		<line class="st2" x1="0.13" y1="63.98" x2="64.13" y2="-0.02"/>
		<rect x="16.13" y="-0.02" class="st2" width="32" height="64"/>
		<line class="st2" x1="32.13" y1="63.98" x2="32.13" y2="-0.02"/>
		<rect x="0.13" y="15.98" class="st2" width="64" height="32"/>
		<line class="st2" x1="0.13" y1="31.98" x2="64.13" y2="31.98"/>
		<rect x="9.13" y="8.98" transform="matrix(6.123234e-17 -1 1 6.123234e-17 0.1455 64.1127)" class="st2" width="46" height="46"/>
		<circle class="st2" cx="32.13" cy="31.98" r="16"/>
		<circle class="st2" cx="32.13" cy="31.98" r="9"/>
	</g>
</g>
<g id="Color">
	<g>
		<path class="st7" d="M39.71,43.36h12.94c0.52,0,0.94-0.41,0.94-0.92V15.29l-10.12-9.9H26.06c-0.52,0-0.94,0.41-0.94,0.92v12.96"/>
		<polygon class="st7" points="43.47,15.29 43.47,5.39 53.59,15.29 		"/>
		<path class="st7" d="M29.59,19.27H12.17c-0.52,0-0.94,0.41-0.94,0.92v36.13c0,0.51,0.42,0.92,0.94,0.92h26.6
			c0.52,0,0.94-0.41,0.94-0.92V29.17L29.59,19.27z"/>
		<polygon class="st7" points="29.59,29.17 29.59,19.27 39.71,29.17 		"/>
		<g>
		</g>
		<path class="st9" d="M52.7,46.46c0,5.21-4.23,9.44-9.44,9.44"/>
		<polyline class="st9" points="44.59,58.47 41.92,55.8 44.59,53.13 		"/>
		<path class="st9" d="M11.65,16.94c0-5.22,4.23-9.44,9.44-9.44"/>
		<polyline class="st9" points="19.76,4.93 22.43,7.6 19.76,10.27 		"/>
	</g>
</g>
<g id="Line">
	<g>
		<path class="st11" d="M39.71,43.36h12.94c0.52,0,0.94-0.41,0.94-0.92V15.29l-10.12-9.9H26.06c-0.52,0-0.94,0.41-0.94,0.92v12.96"
			/>
		<polygon class="st11" points="43.47,15.29 43.47,5.39 53.59,15.29 		"/>
		<path class="st11" d="M29.59,19.27H12.17c-0.52,0-0.94,0.41-0.94,0.92v36.13c0,0.51,0.42,0.92,0.94,0.92h26.6
			c0.52,0,0.94-0.41,0.94-0.92V29.17L29.59,19.27z"/>
		<polygon class="st11" points="29.59,29.17 29.59,19.27 39.71,29.17 		"/>
		<g>
			<line class="st11" x1="35.67" y1="50.84" x2="15.27" y2="50.84"/>
			<line class="st11" x1="35.67" y1="46.65" x2="15.27" y2="46.65"/>
			<line class="st11" x1="35.67" y1="42.45" x2="15.27" y2="42.45"/>
			<line class="st11" x1="35.67" y1="38.26" x2="15.27" y2="38.26"/>
			<line class="st11" x1="35.67" y1="34.07" x2="15.27" y2="34.07"/>
			<line class="st11" x1="27.22" y1="29.88" x2="15.27" y2="29.88"/>
			<line class="st11" x1="26.74" y1="25.68" x2="15.27" y2="25.68"/>
		</g>
		<path class="st11" d="M52.7,46.46c0,5.21-4.23,9.44-9.44,9.44"/>
		<polyline class="st11" points="44.59,58.47 41.92,55.8 44.59,53.13 		"/>
		<path class="st11" d="M11.65,16.94c0-5.22,4.23-9.44,9.44-9.44"/>
		<polyline class="st11" points="19.76,4.93 22.43,7.6 19.76,10.27 		"/>
	</g>
</g>
<g id="Shadow" class="st13">
	<path d="M53.59,42.44V15.29h-7.2v28.08h6.26C53.17,43.36,53.59,42.95,53.59,42.44z"/>
</g>
<g id="Highlight" class="st14">
	<path class="st4" d="M16.63,19.27h-4.21c-0.2,0.21-0.39,0.42-0.57,0.64c-0.23,0.3-0.43,0.61-0.63,0.93v35.47
		c0,0.51,0.42,0.92,0.94,0.92h4.46V19.27z"/>
</g>
</svg>
